<svg id="Layer_1" data-name="Layer 1" xmlns="http://www.w3.org/2000/svg" viewBox="0 0 180 236.58"><defs><style>.cls-1{fill:#fff;fill-rule:evenodd;}</style></defs><title>Cerulean_C_white</title><path class="cls-1" d="M150.14,162.26c-6.71,4-9.6,12.12-15.31,17.9a47,47,0,0,1-79.1-21.95,74.17,74.17,0,0,0,.84,8,80.3,80.3,0,0,0,13,32.61A68.2,68.2,0,0,0,90.81,219a55.5,55.5,0,0,0,28.59,7.84c12,0,24.43-3.69,37-11,0,0,13.37-8.56,18.12-15,5.49-8.18,6.94-15.61,6-21.81C178.59,165.82,162.69,154.85,150.14,162.26Z" transform="translate(-10 -1.71)"/><path class="cls-1" d="M157.17,218.63A90.76,90.76,0,0,1,28.42,92.71c-3.9,8-4.93,28.36,7.15,25.2,3.91-1,8-4.66,10-9.8,3.23-8.57-.49-19.6-3.37-28.14-4.84-14.4-8.64-29.52,13.9-40a28.14,28.14,0,0,0-6.65,21.47C52.21,83,79,79.81,76.39,58.72,74.6,44.45,64.53,28.2,86.61,15.29c-4.89,5.18-6.37,12.62-5.17,19.23C85.7,58.06,114,51.25,111.87,29.15c-1-10.23-8.07-21.48-18.29-27.44C115.23,6.69,138,23,133.11,48c-1.6,8.24-6,14.53-6.5,20.46-.86,10.88,15.85,20.9,18.58,5.68,1.74-9.65-.1-25.33,25.66-29.27-8.2,4.08-12.65,11.38-14.26,19C151.64,87.45,171,99,178.76,82.82c2.17-4.56,2.54-11.29.79-20.55,6.18,7.8,9.95,19.18,10.41,30.43.82,20.21-9.78,33.26-23,36.24-21.39,4.83-27.25-12.3-41-21.07a47,47,0,0,0-69.72,24.59C37.53,181.22,86.76,259.28,157.17,218.63Z" transform="translate(-10 -1.71)"/></svg>