<svg id="Layer_1" data-name="Layer 1" xmlns="http://www.w3.org/2000/svg" xmlns:xlink="http://www.w3.org/1999/xlink" viewBox="0 0 395 156.05"><defs><style>.cls-1,.cls-2{fill-rule:evenodd;}.cls-1{fill:url(#linear-gradient);}.cls-2{fill:url(#linear-gradient-2);}.cls-3{fill:#04bbe7;}</style><linearGradient id="linear-gradient" x1="112.58" y1="113.96" x2="27.73" y2="124.83" gradientUnits="userSpaceOnUse"><stop offset="0" stop-color="#72d6e9"/><stop offset="0.46" stop-color="#04bbe7"/><stop offset="1" stop-color="#03254c"/></linearGradient><linearGradient id="linear-gradient-2" x1="60.67" y1="2.32" x2="63.2" y2="168.44" gradientUnits="userSpaceOnUse"><stop offset="0" stop-color="#72d6e9"/><stop offset="0.46" stop-color="#04bbe7"/><stop offset="1" stop-color="#03254c"/></linearGradient></defs><title>Cerulean_logo_color4</title><path class="cls-1" d="M33,88.22a31,31,0,0,0,51.41,31.71c3.76-3.82,5.67-9.19,10.1-11.81,8.28-4.89,18.76,2.35,20.07,11.09.61,4.08-.35,9-4,14.38a60.29,60.29,0,0,1-11,11.47C48.64,178.24,18.07,120.17,33,88.22Z" transform="translate(-2.5 -1.98)"/><path class="cls-2" d="M99.58,145.06A59.87,59.87,0,0,1,14.65,62c-2.57,5.28-3.25,18.71,4.72,16.62A10.42,10.42,0,0,0,26,72.16c2.14-5.66-.32-12.93-2.21-18.56C20.54,44.1,18,34.12,32.9,27.23A18.63,18.63,0,0,0,28.51,41.4C30.34,55.59,48,53.49,46.29,39.58,45.11,30.17,38.47,19.45,53,10.93a14.73,14.73,0,0,0-3.42,12.69c2.81,15.52,21.45,11,20.07-3.54C69.06,13.33,64.37,5.91,57.63,2,71.91,5.26,86.92,16,83.71,32.51c-1.06,5.43-4,9.58-4.29,13.49-.57,7.18,10.45,13.79,12.25,3.75,1.15-6.36-.06-16.71,16.93-19.31A17.69,17.69,0,0,0,99.19,43c-3.26,15.55,9.52,23.18,14.62,12.5,1.44-3,1.68-7.45.52-13.56,4.09,5.15,6.57,12.65,6.87,20.07.54,13.33-6.44,21.94-15.16,23.91C91.93,89.09,88.07,77.78,79,72A31,31,0,0,0,33,88.22C20.66,120.38,53.13,171.87,99.58,145.06Z" transform="translate(-2.5 -1.98)"/><path class="cls-3" d="M171.05,131.27h4.73c1.34,0,2,.63,2,1.9v9.76c0,1.27-.67,1.91-2,1.91h-4.73Zm4.77,11.4v-9.24a.7.7,0,0,0-.13-.51.87.87,0,0,0-.52-.11H173V143.3h2.14a.79.79,0,0,0,.52-.12A.7.7,0,0,0,175.82,142.67Z" transform="translate(-2.5 -1.98)"/><path class="cls-3" d="M207.68,144.84l-.54-3.15h-2.86l-.5,3.15h-1.95l2.41-13.57h2.84l2.58,13.57Zm-3.16-4.73h2.36L205.65,133Z" transform="translate(-2.5 -1.98)"/><path class="cls-3" d="M239.29,131.27v1.58H237v12h-1.95v-12h-2.28v-1.58Z" transform="translate(-2.5 -1.98)"/><path class="cls-3" d="M268.27,144.84l-.55-3.15h-2.86l-.5,3.15h-1.95l2.41-13.57h2.84l2.58,13.57Zm-3.17-4.73h2.36L266.23,133Z" transform="translate(-2.5 -1.98)"/><path class="cls-3" d="M299.22,131.27h1.95v13.57h-1.95v-6h-2.88v6h-1.95V131.27h1.95v6h2.88Z" transform="translate(-2.5 -1.98)"/><path class="cls-3" d="M330.63,131.27h2v11.66c0,1.27-.68,1.91-2,1.91h-2.41c-1.35,0-2-.64-2-1.91V131.27h2v11.35a.7.7,0,0,0,.13.51.81.81,0,0,0,.52.12H330a.8.8,0,0,0,.53-.12.75.75,0,0,0,.12-.51Z" transform="translate(-2.5 -1.98)"/><path class="cls-3" d="M357.55,131.27h4.7c1.36,0,2,.63,2,1.9v3.45c0,.77-.29,1.21-.87,1.34a1.14,1.14,0,0,1,.87,1.26v3.71c0,1.27-.68,1.91-2,1.91h-4.7Zm4.76,5.26v-3.1a.7.7,0,0,0-.13-.51.87.87,0,0,0-.52-.11H359.5v4.35h2.16a.79.79,0,0,0,.52-.12A.7.7,0,0,0,362.31,136.53Zm0,6.14v-3.34a.7.7,0,0,0-.13-.51.79.79,0,0,0-.52-.12H359.5v4.6h2.16a.79.79,0,0,0,.52-.12A.7.7,0,0,0,362.31,142.67Z" transform="translate(-2.5 -1.98)"/><rect class="cls-3" x="132.99" y="135.16" width="22.21" height="1.61"/><rect class="cls-3" x="371.86" y="135.16" width="23.14" height="1.61"/><path class="cls-3" d="M158,93.47h-8.4V87.64a1.31,1.31,0,0,0-1.51-1.46h-2.4c-1,0-1.57.49-1.57,1.46v22.74a1.5,1.5,0,0,0,.35,1.13,1.76,1.76,0,0,0,1.22.33h2.4a1.66,1.66,0,0,0,1.16-.33,1.5,1.5,0,0,0,.35-1.13v-5.66H158v6.42q0,6.4-7.41,6.41h-7.46q-7.35,0-7.35-6.41V86.88q0-6.41,7.35-6.41h7.46q7.41,0,7.41,6.41Z" transform="translate(-2.5 -1.98)"/><path class="cls-3" d="M179.39,111.43h11.89v6.12H171.05V80.47h19.77v6.12H179.39v9h9.74v6.12h-9.74Z" transform="translate(-2.5 -1.98)"/><path class="cls-3" d="M211.92,103.67v13.88h-8.28V80.47h15.28q7.34,0,7.34,6.41V97.26q0,5.13-4.66,6.18l6.53,14.11h-8.92l-5.83-13.88Zm0-17.08v11.2h4.49a1.76,1.76,0,0,0,1.17-.32,1.44,1.44,0,0,0,.35-1.08V88.05c0-1-.51-1.46-1.52-1.46Z" transform="translate(-2.5 -1.98)"/><path class="cls-3" d="M253.89,80.47h8.34v30.61q0,6.47-7.4,6.47H247q-7.35,0-7.35-6.47V80.47H248V110a1.31,1.31,0,0,0,1.51,1.46h2.8c1.05,0,1.57-.49,1.57-1.46Z" transform="translate(-2.5 -1.98)"/><path class="cls-3" d="M284.44,111.43h10.67v6.12H276.16V80.47h8.28Z" transform="translate(-2.5 -1.98)"/><path class="cls-3" d="M314.87,111.43h11.9v6.12H306.54V80.47H326.3v6.12H314.87v9h9.74v6.12h-9.74Z" transform="translate(-2.5 -1.98)"/><path class="cls-3" d="M356,117.55l-1.28-6.71H346.3L345,117.55h-8.22l8.4-37.08H355.8l8.63,37.08Zm-8.57-12.77h6.06l-3-15.68Z" transform="translate(-2.5 -1.98)"/><path class="cls-3" d="M389.57,80.47h7.64v37.08h-7.47l-8.1-22.21v22.21h-7.58V80.47h7.52l8,22.15Z" transform="translate(-2.5 -1.98)"/></svg>