<svg id="Layer_1" data-name="Layer 1" xmlns="http://www.w3.org/2000/svg" viewBox="0 0 97.41 90"><defs><style>.cls-1{fill:#04bbe7;}</style></defs><title>Air_pressure_icon</title><path class="cls-1" d="M56.53,56.12,43.86,34.17,31.18,56.12h9.15v10.8a3.53,3.53,0,0,0,7.06,0V56.12Z" transform="translate(-1.3 -5)"/><path class="cls-1" d="M81.65,67.83H69.52a3.21,3.21,0,0,1,0-6.42H81.65c5.86,0,10.63-5.12,10.63-11.41S87.51,38.58,81.65,38.58a9.93,9.93,0,0,0-3.19.53L73.3,40.85l1-5.36a13,13,0,0,0,.2-2.21c0-6.29-4.77-11.41-10.63-11.41A10.17,10.17,0,0,0,57,24.59l-3.66,3.34-1.55-4.7A16.72,16.72,0,0,0,36.14,11.42c-9.14,0-16.57,7.93-16.57,17.69a18.85,18.85,0,0,0,.79,5.39l1.14,3.81-4,.32C12,39.07,7.72,44.06,7.72,50c0,6.29,4.77,11.41,10.63,11.41H29.73a3.21,3.21,0,0,1,0,6.42H18.35c-9.4,0-17-8-17-17.83A17.84,17.84,0,0,1,13.44,32.93a25.65,25.65,0,0,1-.29-3.82C13.15,15.81,23.46,5,36.14,5A22.85,22.85,0,0,1,56.2,17.35a16.38,16.38,0,0,1,7.65-1.9c9.05,0,16.47,7.41,17,16.73l.78,0c9.4,0,17,8,17,17.84S91.05,67.83,81.65,67.83Z" transform="translate(-1.3 -5)"/><path class="cls-1" d="M59.67,73.05V62.24a3.53,3.53,0,1,0-7.06,0V73.05H43.47L56.14,95l12.68-22Z" transform="translate(-1.3 -5)"/></svg>