<svg id="Layer_1" data-name="Layer 1" xmlns="http://www.w3.org/2000/svg" viewBox="0 0 50.44 90"><defs><style>.cls-1{fill:#04bbe7;}</style></defs><title>Temperature_icon</title><path class="cls-1" d="M67,55.8V20c0-8.29-7.4-15-16.49-15S34.08,11.69,34,19.93H24.78v6H34v6.54H24.78v6H34V45H24.78v6H34v4.61a21.48,21.48,0,0,0-8.55,17C25.46,84.91,36.62,95,50.34,95S75.22,84.91,75.22,72.5A21.48,21.48,0,0,0,67,55.8ZM50.34,89.09c-10.46,0-19-7.44-19-16.59a15.84,15.84,0,0,1,7.28-13A3,3,0,0,0,39.93,57V50.93h2.43V45H39.93V38.41h2.43v-6H39.93V25.9h2.43v-6H39.94c.06-5,4.77-9,10.57-9S61.09,15,61.09,20V57.26a3,3,0,0,0,1.23,2.41,15.82,15.82,0,0,1,7,12.83C69.31,81.65,60.8,89.09,50.34,89.09Zm4.68-27V21.48a4.44,4.44,0,0,0-8.87,0V62.13a11,11,0,1,0,8.87,0ZM48.61,70c-1,1.72-2.86,2.5-4.24,1.73S42.64,69,43.6,67.23s2.85-2.5,4.24-1.73S49.56,68.28,48.61,70Z" transform="translate(-24.78 -5)"/></svg>